<svg xmlns="http://www.w3.org/2000/svg" viewBox="0 0 960 430" role="img" aria-labelledby="title desc">
  <title id="title">Core accounting and banking system</title>
  <desc id="desc">An accounting system dashboard with ledgers, charts, transactions, and connected banking modules.</desc>
  <defs>
    <linearGradient id="bg" x1="0" y1="0" x2="1" y2="1">
      <stop offset="0" stop-color="#f5fbff"/>
      <stop offset="0.55" stop-color="#dff2ff"/>
      <stop offset="1" stop-color="#c7e8f7"/>
    </linearGradient>
    <linearGradient id="screen" x1="0" y1="0" x2="1" y2="1">
      <stop offset="0" stop-color="#183a78"/>
      <stop offset="1" stop-color="#0ba8d4"/>
    </linearGradient>
    <filter id="shadow" x="-20%" y="-20%" width="140%" height="150%">
      <feDropShadow dx="0" dy="12" stdDeviation="12" flood-color="#143368" flood-opacity="0.18"/>
    </filter>
  </defs>
  <rect width="960" height="430" fill="url(#bg)"/>
  <g opacity="0.22" fill="none" stroke="#1f3d7c" stroke-width="2">
    <path d="M52 82h136l56 56h120l58-72h126"/>
    <path d="M532 326h136l58-64h170"/>
    <path d="M142 82v238M548 66v212M726 262v72"/>
    <circle cx="188" cy="82" r="7" fill="#1f3d7c"/>
    <circle cx="364" cy="138" r="7" fill="#1f3d7c"/>
    <circle cx="548" cy="66" r="7" fill="#1f3d7c"/>
    <circle cx="726" cy="262" r="7" fill="#1f3d7c"/>
  </g>
  <g transform="translate(90 76)" filter="url(#shadow)">
    <rect width="500" height="286" rx="18" fill="#ffffff"/>
    <rect width="500" height="62" rx="18" fill="#1f3d7c"/>
    <rect x="0" y="44" width="500" height="28" fill="#1f3d7c"/>
    <circle cx="36" cy="31" r="9" fill="#ff6d6d"/>
    <circle cx="66" cy="31" r="9" fill="#ffd15c"/>
    <circle cx="96" cy="31" r="9" fill="#2ed17d"/>
    <rect x="126" y="23" width="220" height="16" rx="8" fill="#dff9ff" opacity="0.82"/>
    <rect x="34" y="96" width="172" height="146" rx="12" fill="url(#screen)"/>
    <path d="M62 196V152M102 196v-70M142 196v-38M182 196v-92" stroke="#fff" stroke-width="14" stroke-linecap="round" opacity="0.9"/>
    <rect x="238" y="98" width="220" height="22" rx="6" fill="#e5edf8"/>
    <rect x="238" y="136" width="220" height="22" rx="6" fill="#e5edf8"/>
    <rect x="238" y="174" width="220" height="22" rx="6" fill="#e5edf8"/>
    <rect x="238" y="212" width="220" height="22" rx="6" fill="#e5edf8"/>
    <rect x="254" y="104" width="84" height="10" rx="5" fill="#1f3d7c"/>
    <rect x="254" y="142" width="116" height="10" rx="5" fill="#1f3d7c"/>
    <rect x="254" y="180" width="94" height="10" rx="5" fill="#1f3d7c"/>
    <rect x="254" y="218" width="132" height="10" rx="5" fill="#1f3d7c"/>
    <circle cx="424" cy="109" r="7" fill="#2ed17d"/>
    <circle cx="424" cy="147" r="7" fill="#2ed17d"/>
    <circle cx="424" cy="185" r="7" fill="#2ed17d"/>
    <circle cx="424" cy="223" r="7" fill="#2ed17d"/>
  </g>
  <g transform="translate(656 82)" filter="url(#shadow)">
    <rect width="216" height="264" rx="18" fill="#183a78"/>
    <rect x="30" y="30" width="156" height="24" rx="7" fill="#eafcff"/>
    <rect x="30" y="78" width="156" height="24" rx="7" fill="#eafcff" opacity="0.86"/>
    <rect x="30" y="126" width="156" height="24" rx="7" fill="#eafcff" opacity="0.72"/>
    <rect x="30" y="174" width="156" height="24" rx="7" fill="#eafcff" opacity="0.58"/>
    <path d="M62 222h92" stroke="#0ba8d4" stroke-width="12" stroke-linecap="round"/>
    <circle cx="48" cy="42" r="6" fill="#2ed17d"/>
    <circle cx="48" cy="90" r="6" fill="#2ed17d"/>
    <circle cx="48" cy="138" r="6" fill="#2ed17d"/>
    <circle cx="48" cy="186" r="6" fill="#2ed17d"/>
  </g>
  <g transform="translate(548 294)" filter="url(#shadow)">
    <rect width="122" height="62" rx="12" fill="#ffffff"/>
    <circle cx="34" cy="31" r="17" fill="#2ed17d"/>
    <path d="m25 31 7 8 15-20" fill="none" stroke="#ffffff" stroke-width="6" stroke-linecap="round" stroke-linejoin="round"/>
    <rect x="62" y="18" width="40" height="8" rx="4" fill="#1f3d7c"/>
    <rect x="62" y="36" width="26" height="8" rx="4" fill="#0ba8d4"/>
  </g>
</svg>
