<svg xmlns="http://www.w3.org/2000/svg" viewBox="0 0 960 430" role="img" aria-labelledby="title desc">
  <title id="title">Cybersecurity network protection</title>
  <desc id="desc">A digital security illustration with a shield lock, connected nodes, and secure server panels.</desc>
  <defs>
    <linearGradient id="bg" x1="0" y1="0" x2="1" y2="1">
      <stop offset="0" stop-color="#061343"/>
      <stop offset="0.56" stop-color="#092c66"/>
      <stop offset="1" stop-color="#0db2d6"/>
    </linearGradient>
    <linearGradient id="shield" x1="0" y1="0" x2="1" y2="1">
      <stop offset="0" stop-color="#ffffff"/>
      <stop offset="1" stop-color="#82e8ff"/>
    </linearGradient>
    <filter id="glow" x="-30%" y="-30%" width="160%" height="160%">
      <feGaussianBlur stdDeviation="5" result="blur"/>
      <feMerge>
        <feMergeNode in="blur"/>
        <feMergeNode in="SourceGraphic"/>
      </feMerge>
    </filter>
  </defs>
  <rect width="960" height="430" fill="url(#bg)"/>
  <g opacity="0.24" stroke="#bdf5ff" stroke-width="2">
    <path d="M60 76h156l58 48h112l86-70h138l62 62h228"/>
    <path d="M44 323h158l82-86h118l72 60h168l68-80h198"/>
    <path d="M168 76v247M610 54v298M802 116v101"/>
  </g>
  <g fill="#9ff3ff" filter="url(#glow)">
    <circle cx="60" cy="76" r="7"/>
    <circle cx="216" cy="76" r="7"/>
    <circle cx="274" cy="124" r="7"/>
    <circle cx="386" cy="124" r="7"/>
    <circle cx="472" cy="54" r="7"/>
    <circle cx="610" cy="54" r="7"/>
    <circle cx="672" cy="116" r="7"/>
    <circle cx="900" cy="116" r="7"/>
    <circle cx="44" cy="323" r="7"/>
    <circle cx="202" cy="323" r="7"/>
    <circle cx="284" cy="237" r="7"/>
    <circle cx="402" cy="237" r="7"/>
    <circle cx="474" cy="297" r="7"/>
    <circle cx="642" cy="297" r="7"/>
    <circle cx="710" cy="217" r="7"/>
    <circle cx="908" cy="217" r="7"/>
  </g>
  <g transform="translate(90 124)">
    <rect width="232" height="176" rx="12" fill="#071950" opacity="0.88" stroke="#36d8ff" stroke-width="2"/>
    <rect x="24" y="28" width="184" height="18" rx="9" fill="#1cc8ef" opacity="0.84"/>
    <rect x="24" y="68" width="132" height="12" rx="6" fill="#d7fbff" opacity="0.76"/>
    <rect x="24" y="96" width="164" height="12" rx="6" fill="#d7fbff" opacity="0.54"/>
    <rect x="24" y="124" width="106" height="12" rx="6" fill="#d7fbff" opacity="0.54"/>
    <circle cx="194" cy="132" r="18" fill="#0ed1a7"/>
    <path d="m185 132 6 7 14-18" fill="none" stroke="#fff" stroke-width="5" stroke-linecap="round" stroke-linejoin="round"/>
  </g>
  <g transform="translate(372 72)">
    <path d="M118 0 224 38v86c0 96-64 154-106 174C76 278 12 220 12 124V38Z" fill="#05144a" stroke="#e9fdff" stroke-width="6"/>
    <path d="M118 18 204 49v75c0 78-50 126-86 146-36-20-86-68-86-146V49Z" fill="url(#shield)" opacity="0.96"/>
    <rect x="76" y="121" width="84" height="78" rx="10" fill="#071950"/>
    <path d="M94 121V96c0-32 48-32 48 0v25" fill="none" stroke="#071950" stroke-width="16" stroke-linecap="round"/>
    <circle cx="118" cy="158" r="9" fill="#0fd2f4"/>
    <path d="M118 166v17" stroke="#0fd2f4" stroke-width="7" stroke-linecap="round"/>
  </g>
  <g transform="translate(666 110)">
    <rect width="212" height="60" rx="10" fill="#06184e" stroke="#6beaff" stroke-width="2"/>
    <rect y="82" width="212" height="60" rx="10" fill="#06184e" stroke="#6beaff" stroke-width="2"/>
    <rect y="164" width="212" height="60" rx="10" fill="#06184e" stroke="#6beaff" stroke-width="2"/>
    <circle cx="32" cy="30" r="10" fill="#0ed1a7"/>
    <circle cx="32" cy="112" r="10" fill="#0ed1a7"/>
    <circle cx="32" cy="194" r="10" fill="#0ed1a7"/>
    <rect x="58" y="22" width="118" height="8" rx="4" fill="#d7fbff" opacity="0.7"/>
    <rect x="58" y="104" width="118" height="8" rx="4" fill="#d7fbff" opacity="0.7"/>
    <rect x="58" y="186" width="118" height="8" rx="4" fill="#d7fbff" opacity="0.7"/>
    <rect x="58" y="38" width="82" height="6" rx="3" fill="#6beaff" opacity="0.55"/>
    <rect x="58" y="120" width="82" height="6" rx="3" fill="#6beaff" opacity="0.55"/>
    <rect x="58" y="202" width="82" height="6" rx="3" fill="#6beaff" opacity="0.55"/>
  </g>
</svg>
