<svg xmlns="http://www.w3.org/2000/svg" viewBox="0 0 960 430" role="img" aria-labelledby="title desc">
  <title id="title">Hardware E-Store products</title>
  <desc id="desc">A hardware sales illustration showing computers, network switches, routers, servers, storage, and shopping elements.</desc>
  <defs>
    <linearGradient id="bg" x1="0" y1="0" x2="1" y2="1">
      <stop offset="0" stop-color="#eff8f0"/>
      <stop offset="0.52" stop-color="#d7f2e3"/>
      <stop offset="1" stop-color="#b6e9f3"/>
    </linearGradient>
    <linearGradient id="screen" x1="0" y1="0" x2="1" y2="1">
      <stop offset="0" stop-color="#1f3d7c"/>
      <stop offset="1" stop-color="#08a9d5"/>
    </linearGradient>
    <filter id="shadow" x="-20%" y="-20%" width="140%" height="150%">
      <feDropShadow dx="0" dy="10" stdDeviation="10" flood-color="#17315f" flood-opacity="0.18"/>
    </filter>
  </defs>
  <rect width="960" height="430" fill="url(#bg)"/>
  <g opacity="0.22" fill="none" stroke="#1f3d7c" stroke-width="2">
    <path d="M40 88h180l72 66h138"/>
    <path d="M518 98h156l74 72h172"/>
    <path d="M58 326h172l84-76h196"/>
    <circle cx="220" cy="88" r="7" fill="#1f3d7c"/>
    <circle cx="430" cy="154" r="7" fill="#1f3d7c"/>
    <circle cx="674" cy="98" r="7" fill="#1f3d7c"/>
    <circle cx="748" cy="170" r="7" fill="#1f3d7c"/>
  </g>
  <g transform="translate(82 86)" filter="url(#shadow)">
    <rect x="0" y="0" width="276" height="172" rx="14" fill="#17326a"/>
    <rect x="22" y="22" width="232" height="116" rx="8" fill="url(#screen)"/>
    <rect x="90" y="172" width="96" height="22" fill="#17326a"/>
    <rect x="62" y="192" width="154" height="18" rx="9" fill="#17326a"/>
    <path d="M62 78h38l16-22 32 58 28-42 18 18h38" fill="none" stroke="#ffffff" stroke-width="7" stroke-linecap="round" stroke-linejoin="round" opacity="0.86"/>
  </g>
  <g transform="translate(414 70)" filter="url(#shadow)">
    <rect x="0" y="0" width="184" height="258" rx="14" fill="#102b64"/>
    <rect x="28" y="28" width="128" height="26" rx="6" fill="#eafcff"/>
    <rect x="28" y="78" width="128" height="26" rx="6" fill="#eafcff" opacity="0.86"/>
    <rect x="28" y="128" width="128" height="26" rx="6" fill="#eafcff" opacity="0.72"/>
    <rect x="28" y="178" width="128" height="26" rx="6" fill="#eafcff" opacity="0.58"/>
    <circle cx="44" cy="41" r="5" fill="#2ed17d"/>
    <circle cx="44" cy="91" r="5" fill="#2ed17d"/>
    <circle cx="44" cy="141" r="5" fill="#2ed17d"/>
    <circle cx="44" cy="191" r="5" fill="#2ed17d"/>
  </g>
  <g transform="translate(648 100)" filter="url(#shadow)">
    <rect x="0" y="0" width="204" height="84" rx="12" fill="#1f3d7c"/>
    <rect x="20" y="26" width="104" height="10" rx="5" fill="#f4fbff"/>
    <rect x="20" y="48" width="146" height="10" rx="5" fill="#c8f7ff"/>
    <circle cx="174" cy="42" r="18" fill="#2ed17d"/>
    <path d="m165 42 7 7 15-19" fill="none" stroke="#fff" stroke-width="5" stroke-linecap="round" stroke-linejoin="round"/>
    <rect x="12" y="116" width="178" height="58" rx="10" fill="#17326a"/>
    <rect x="30" y="136" width="116" height="8" rx="4" fill="#eafcff"/>
    <circle cx="162" cy="145" r="9" fill="#09acd8"/>
  </g>
  <g transform="translate(232 284)" filter="url(#shadow)">
    <rect x="0" y="0" width="210" height="64" rx="12" fill="#ffffff"/>
    <rect x="20" y="20" width="36" height="24" rx="4" fill="#1f3d7c"/>
    <rect x="70" y="18" width="88" height="8" rx="4" fill="#1f3d7c"/>
    <rect x="70" y="36" width="118" height="8" rx="4" fill="#08a9d5"/>
  </g>
  <g transform="translate(608 286)" filter="url(#shadow)">
    <path d="M2 4h26l22 78h142l20-58H60" fill="none" stroke="#1f3d7c" stroke-width="12" stroke-linecap="round" stroke-linejoin="round"/>
    <circle cx="78" cy="116" r="17" fill="#1f3d7c"/>
    <circle cx="164" cy="116" r="17" fill="#1f3d7c"/>
    <circle cx="78" cy="116" r="7" fill="#f8f6e9"/>
    <circle cx="164" cy="116" r="7" fill="#f8f6e9"/>
  </g>
  <g transform="translate(96 302)">
    <rect width="86" height="48" rx="8" fill="#2ed17d"/>
    <path d="M18 18h50M18 32h34" stroke="#fff" stroke-width="6" stroke-linecap="round"/>
  </g>
</svg>
